# xmcd
#
# Track frame offsets:
#	150
#	9569
#	18798
#	27728
#	37475
#	49518
#	59153
#	72318
#	83932
#	95328
#	109132
#	121841
#	134932
#	143515
#
# Disc length: 2081 seconds
#
# Revision: 0
# Processed by: cddbd v1.5.2PL0 Copyright (c) Steve Scherf et al.
# Submitted via: audiograbber 1.83.01
#
DISCID=cc081f0e
DTITLE=Johnny Cash - Old golden throat
DYEAR=1900
DGENRE=
TTITLE0=I Got Stripes
TTITLE1=A Certain Kinda Hurtin'
TTITLE2=Little at a Time
TTITLE3=All over Again
TTITLE4=Still in Town
TTITLE5=Smiling Bill McCall
TTITLE6=The Wind Changes
TTITLE7=The Sons of Katie Elder
TTITLE8=Dark as a Dungeon
TTITLE9=Tennessee Flat Top Box
TTITLE10=The Matador
TTITLE11=Send a Picture of Mother
TTITLE12=You Dreamer You
TTITLE13=Red Velvet
EXTD=
EXTT0=
EXTT1=
EXTT2=
EXTT3=
EXTT4=
EXTT5=
EXTT6=
EXTT7=
EXTT8=
EXTT9=
EXTT10=
EXTT11=
EXTT12=
EXTT13=
PLAYORDER=
